<svg width="133" height="175" viewBox="0 0 133 175" fill="none" xmlns="http://www.w3.org/2000/svg">
<g style="mix-blend-mode:overlay">
<path d="M164.12 86.7103C164.383 129.273 130.093 163.991 87.5295 164.254C44.9664 164.518 10.2487 130.227 9.98532 87.6641C9.72194 45.101 44.0126 10.3833 86.5757 10.1199C129.139 9.85653 163.857 44.1472 164.12 86.7103Z" fill="#252525"/>
<path d="M168.889 96.6824C164.18 137.573 129.571 169.444 87.3716 169.705C45.1549 169.967 10.1416 138.497 4.95025 97.6423C4.65365 95.3081 6.51215 93.3014 8.86504 93.2876L164.923 92.374C167.276 92.3603 169.158 94.345 168.889 96.6824Z" fill="#F8F8F8"/>
<g filter="url(#filter0_i_1215_748)">
<path fill-rule="evenodd" clip-rule="evenodd" d="M164.826 96.438C160.252 135.207 127.39 165.394 87.3465 165.642C47.2862 165.89 14.0423 136.083 9.00942 97.3501L164.826 96.438ZM87.3716 169.705C129.571 169.444 164.18 137.573 168.889 96.6824C169.158 94.345 167.276 92.3603 164.923 92.374L8.86504 93.2876C6.51215 93.3014 4.65365 95.3081 4.95025 97.6423C10.1416 138.497 45.1549 169.967 87.3716 169.705Z" fill="#252525"/>
</g>
<path d="M168.958 76.8438C163.744 36.0144 128.742 4.57416 86.543 4.83529C44.3263 5.09653 9.70511 36.9972 5.0198 77.9129C4.75211 80.2505 6.6353 82.2342 8.98818 82.2188L165.046 81.201C167.399 81.1857 169.256 79.1777 168.958 76.8438Z" fill="#FF4C41"/>
<g filter="url(#filter1_i_1215_748)">
<path fill-rule="evenodd" clip-rule="evenodd" d="M164.899 77.1386C159.844 38.4295 126.612 8.65074 86.5682 8.89853C46.5079 9.14642 13.6354 39.3624 9.08227 78.1548L164.899 77.1386ZM86.543 4.83529C128.742 4.57416 163.744 36.0144 168.958 76.8438C169.256 79.1777 167.399 81.1857 165.046 81.201L8.98818 82.2188C6.6353 82.2342 4.75211 80.2505 5.0198 77.9129C9.70511 36.9972 44.3263 5.09653 86.543 4.83529Z" fill="#252525"/>
</g>
<path d="M117.329 86.9998C117.433 103.721 103.961 117.36 87.24 117.464C70.5188 117.567 56.8797 104.096 56.7762 87.3745C56.6727 70.6533 70.1441 57.0142 86.8653 56.9107C103.586 56.8073 117.226 70.2786 117.329 86.9998Z" fill="#252525"/>
<path d="M106.319 87.068C106.385 97.7088 97.8126 106.388 87.1718 106.454C76.5311 106.52 67.8516 97.9473 67.7858 87.3065C67.7199 76.6657 76.2926 67.9863 86.9334 67.9204C97.5742 67.8546 106.254 76.4273 106.319 87.068Z" fill="#F8F8F8"/>
<g filter="url(#filter2_d_1215_748)">
<path d="M100.815 87.1021C100.862 94.7026 94.7383 100.902 87.1378 100.949C79.5372 100.996 73.3376 94.8729 73.2906 87.2724C73.2436 79.6718 79.3669 73.4722 86.9675 73.4252C94.568 73.3782 100.768 79.5015 100.815 87.1021Z" fill="#F8F8F8"/>
</g>
<path fill-rule="evenodd" clip-rule="evenodd" d="M87.1126 96.886C92.4691 96.8529 96.7845 92.4837 96.7514 87.1272C96.7183 81.7707 92.3491 77.4553 86.9926 77.4885C81.6361 77.5216 77.3207 81.8908 77.3538 87.2472C77.387 92.6037 81.7561 96.9192 87.1126 96.886ZM87.1378 100.949C94.7383 100.902 100.862 94.7026 100.815 87.1021C100.768 79.5015 94.568 73.3782 86.9675 73.4252C79.3669 73.4722 73.2436 79.6718 73.2906 87.2724C73.3376 94.8729 79.5372 100.996 87.1378 100.949Z" fill="#252525"/>
<path d="M34.1807 47.8242C34.1807 47.8242 51.3596 33.6574 60.4367 23.1558C62.4938 20.7759 64.779 18.7345 65.5441 16.9537C66.9358 13.7146 58.7016 16.4129 55.0881 17.8914C41.4298 23.4795 27.9845 35.4003 24.1076 48.1752C23.05 51.66 23.2794 54.6563 26.0493 54.4079C27.945 54.238 34.1807 47.8242 34.1807 47.8242Z" fill="white" fill-opacity="0.8"/>
<path d="M17.3122 59.9987C16.7313 61.8165 16.8407 64.171 18.6769 64.6909C20.4859 65.2032 22.3196 61.5429 22.3196 61.5429C22.3196 61.5429 23.8583 57.5541 22.1653 56.8111C20.8801 56.2472 18.0204 57.7821 17.3122 59.9987Z" fill="white" fill-opacity="0.8"/>
<path d="M14.4708 68.6275C14.5161 69.4051 14.7185 70.0341 15.4139 70.3851C16.5949 70.9811 17.6383 69.1056 17.5837 67.7839C17.5545 67.0761 17.4397 66.5295 16.8619 66.1197C15.7582 65.3368 14.3921 67.2766 14.4708 68.6275Z" fill="white" fill-opacity="0.8"/>
</g>
<defs>
<filter id="filter0_i_1215_748" x="4.91907" y="92.374" width="163.995" height="77.3331" filterUnits="userSpaceOnUse" color-interpolation-filters="sRGB">
<feFlood flood-opacity="0" result="BackgroundImageFix"/>
<feBlend mode="normal" in="SourceGraphic" in2="BackgroundImageFix" result="shape"/>
<feColorMatrix in="SourceAlpha" type="matrix" values="0 0 0 0 0 0 0 0 0 0 0 0 0 0 0 0 0 0 127 0" result="hardAlpha"/>
<feOffset dx="-150" dy="-50"/>
<feComposite in2="hardAlpha" operator="arithmetic" k2="-1" k3="1"/>
<feColorMatrix type="matrix" values="0 0 0 0 0 0 0 0 0 0 0 0 0 0 0 0 0 0 0.25 0"/>
<feBlend mode="normal" in2="shape" result="effect1_innerShadow_1215_748"/>
</filter>
<filter id="filter1_i_1215_748" x="4.99438" y="4.83368" width="163.995" height="77.3853" filterUnits="userSpaceOnUse" color-interpolation-filters="sRGB">
<feFlood flood-opacity="0" result="BackgroundImageFix"/>
<feBlend mode="normal" in="SourceGraphic" in2="BackgroundImageFix" result="shape"/>
<feColorMatrix in="SourceAlpha" type="matrix" values="0 0 0 0 0 0 0 0 0 0 0 0 0 0 0 0 0 0 127 0" result="hardAlpha"/>
<feOffset dx="-150" dy="-25"/>
<feComposite in2="hardAlpha" operator="arithmetic" k2="-1" k3="1"/>
<feColorMatrix type="matrix" values="0 0 0 0 0 0 0 0 0 0 0 0 0 0 0 0 0 0 0.25 0"/>
<feBlend mode="normal" in2="shape" result="effect1_innerShadow_1215_748"/>
</filter>
<filter id="filter2_d_1215_748" x="73.2903" y="73.4249" width="37.5246" height="37.5246" filterUnits="userSpaceOnUse" color-interpolation-filters="sRGB">
<feFlood flood-opacity="0" result="BackgroundImageFix"/>
<feColorMatrix in="SourceAlpha" type="matrix" values="0 0 0 0 0 0 0 0 0 0 0 0 0 0 0 0 0 0 127 0" result="hardAlpha"/>
<feOffset dx="10" dy="10"/>
<feColorMatrix type="matrix" values="0 0 0 0 0 0 0 0 0 0 0 0 0 0 0 0 0 0 0.25 0"/>
<feBlend mode="normal" in2="BackgroundImageFix" result="effect1_dropShadow_1215_748"/>
<feBlend mode="normal" in="SourceGraphic" in2="effect1_dropShadow_1215_748" result="shape"/>
</filter>
</defs>
</svg>
