<svg width="16" height="16" viewBox="0 0 16 16" fill="none" xmlns="http://www.w3.org/2000/svg">
<path d="M8.26913 15.8405L8.52167 15.588C8.68903 15.4207 8.68903 15.1493 8.52167 14.9819L2.14688 8.60714H15.5714C15.8081 8.60714 16 8.41525 16 8.17857V7.82143C16 7.58475 15.8081 7.39285 15.5714 7.39285H2.14688L8.52167 1.01806C8.68903 0.850704 8.68903 0.579347 8.52167 0.411954L8.26913 0.159454C8.10178 -0.00790378 7.83042 -0.00790378 7.66306 0.159454L0.125518 7.69696C-0.0418393 7.86432 -0.0418393 8.13568 0.125518 8.30307L7.66306 15.8406C7.83042 16.0079 8.10178 16.0079 8.26913 15.8405Z" fill="#3B3B3B"/>
</svg>
