<svg width="22" height="18" viewBox="0 0 22 18" fill="none" xmlns="http://www.w3.org/2000/svg">
<path d="M21.3125 14.1429H6.875V13.5C6.875 13.1464 6.56563 12.8571 6.1875 12.8571H4.8125C4.43437 12.8571 4.125 13.1464 4.125 13.5V14.1429H0.6875C0.309375 14.1429 0 14.4321 0 14.7857V16.0714C0 16.425 0.309375 16.7143 0.6875 16.7143H4.125V17.3571C4.125 17.7107 4.43437 18 4.8125 18H6.1875C6.56563 18 6.875 17.7107 6.875 17.3571V16.7143H21.3125C21.6906 16.7143 22 16.425 22 16.0714V14.7857C22 14.4321 21.6906 14.1429 21.3125 14.1429ZM21.3125 7.71429H17.875V7.07143C17.875 6.71786 17.5656 6.42857 17.1875 6.42857H15.8125C15.4344 6.42857 15.125 6.71786 15.125 7.07143V7.71429H0.6875C0.309375 7.71429 0 8.00357 0 8.35714V9.64286C0 9.99643 0.309375 10.2857 0.6875 10.2857H15.125V10.9286C15.125 11.2821 15.4344 11.5714 15.8125 11.5714H17.1875C17.5656 11.5714 17.875 11.2821 17.875 10.9286V10.2857H21.3125C21.6906 10.2857 22 9.99643 22 9.64286V8.35714C22 8.00357 21.6906 7.71429 21.3125 7.71429ZM21.3125 1.28571H12.375V0.642857C12.375 0.289286 12.0656 0 11.6875 0H10.3125C9.93437 0 9.625 0.289286 9.625 0.642857V1.28571H0.6875C0.309375 1.28571 0 1.575 0 1.92857V3.21429C0 3.56786 0.309375 3.85714 0.6875 3.85714H9.625V4.5C9.625 4.85357 9.93437 5.14286 10.3125 5.14286H11.6875C12.0656 5.14286 12.375 4.85357 12.375 4.5V3.85714H21.3125C21.6906 3.85714 22 3.56786 22 3.21429V1.92857C22 1.575 21.6906 1.28571 21.3125 1.28571Z" fill="#FCFCFC"/>
</svg>
